<svg xmlns="http://www.w3.org/2000/svg" xmlns:xlink="http://www.w3.org/1999/xlink" width="100" zoomAndPan="magnify" viewBox="0 0 75 74.999997" height="100" preserveAspectRatio="xMidYMid meet" version="1.0"><path fill="#a87ff3" d="M 62.5 0 L 12.5 0 C 5.609375 0 0 5.609375 0 12.5 L 0 62.5 C 0 69.390625 5.609375 75 12.5 75 L 62.5 75 C 69.390625 75 75 69.390625 75 62.5 L 75 12.5 C 75 5.609375 69.390625 0 62.5 0 Z M 70 62.5 C 70 66.636719 66.636719 70 62.5 70 L 12.5 70 C 8.363281 70 5 66.636719 5 62.5 L 5 12.5 C 5 8.363281 8.363281 5 12.5 5 L 62.5 5 C 66.636719 5 70 8.363281 70 12.5 Z M 70 62.5 " fill-opacity="1" fill-rule="nonzero"/><path fill="#a87ff3" d="M 50.582031 35 L 40 35 L 40 24.417969 C 40 23.039062 38.882812 21.917969 37.5 21.917969 C 36.117188 21.917969 35 23.035156 35 24.417969 L 35 35 L 24.417969 35 C 23.039062 35 21.917969 36.117188 21.917969 37.5 C 21.917969 38.882812 23.035156 40 24.417969 40 L 35 40 L 35 50.582031 C 35 51.960938 36.117188 53.082031 37.5 53.082031 C 38.882812 53.082031 40 51.964844 40 50.582031 L 40 40 L 50.582031 40 C 51.960938 40 53.082031 38.882812 53.082031 37.5 C 53.082031 36.117188 51.960938 35 50.582031 35 Z M 50.582031 35 " fill-opacity="1" fill-rule="nonzero"/></svg>