<svg xmlns="http://www.w3.org/2000/svg" xmlns:xlink="http://www.w3.org/1999/xlink" width="100" zoomAndPan="magnify" viewBox="0 0 75 74.999997" height="100" preserveAspectRatio="xMidYMid meet" version="1.0"><defs><clipPath id="3c0d7dabdb"><path d="M 3.273438 0 L 71.523438 0 L 71.523438 75 L 3.273438 75 Z M 3.273438 0 " clip-rule="nonzero"/></clipPath></defs><g clip-path="url(#3c0d7dabdb)"><path fill="#df1616" d="M 68.273438 13.054688 L 53.648438 13.054688 L 53.648438 10.757812 C 53.648438 10.050781 53.578125 9.351562 53.4375 8.660156 C 53.300781 7.96875 53.097656 7.300781 52.828125 6.648438 C 52.558594 5.996094 52.230469 5.378906 51.839844 4.792969 C 51.449219 4.207031 51.003906 3.664062 50.507812 3.167969 C 50.007812 2.667969 49.46875 2.222656 48.882812 1.832031 C 48.300781 1.4375 47.683594 1.109375 47.035156 0.835938 C 46.386719 0.566406 45.714844 0.363281 45.027344 0.226562 C 44.335938 0.0859375 43.640625 0.015625 42.9375 0.015625 L 31.855469 0.015625 C 31.152344 0.015625 30.457031 0.0859375 29.769531 0.226562 C 29.078125 0.363281 28.410156 0.566406 27.761719 0.835938 C 27.113281 1.109375 26.496094 1.4375 25.910156 1.832031 C 25.328125 2.222656 24.785156 2.667969 24.289062 3.167969 C 23.792969 3.664062 23.347656 4.207031 22.957031 4.792969 C 22.566406 5.378906 22.238281 5.996094 21.96875 6.648438 C 21.699219 7.300781 21.492188 7.96875 21.355469 8.660156 C 21.21875 9.351562 21.148438 10.050781 21.148438 10.757812 L 21.148438 13.054688 L 6.523438 13.054688 C 6.089844 13.054688 5.675781 13.136719 5.277344 13.300781 C 4.878906 13.46875 4.53125 13.703125 4.226562 14.007812 C 3.917969 14.3125 3.683594 14.667969 3.519531 15.066406 C 3.355469 15.464844 3.273438 15.882812 3.273438 16.3125 C 3.273438 16.746094 3.355469 17.160156 3.519531 17.5625 C 3.683594 17.960938 3.917969 18.3125 4.226562 18.617188 C 4.53125 18.921875 4.878906 19.160156 5.277344 19.324219 C 5.675781 19.488281 6.089844 19.574219 6.523438 19.574219 L 11.398438 19.574219 L 11.398438 64.195312 C 11.398438 64.902344 11.46875 65.605469 11.609375 66.300781 C 11.746094 66.996094 11.953125 67.671875 12.222656 68.324219 C 12.492188 68.980469 12.824219 69.601562 13.21875 70.191406 C 13.613281 70.78125 14.058594 71.324219 14.558594 71.824219 C 15.058594 72.324219 15.601562 72.773438 16.191406 73.167969 C 16.777344 73.558594 17.398438 73.890625 18.050781 74.164062 C 18.707031 74.433594 19.378906 74.640625 20.070312 74.777344 C 20.765625 74.914062 21.464844 74.984375 22.171875 74.984375 L 52.640625 74.984375 C 53.347656 74.984375 54.046875 74.914062 54.738281 74.773438 C 55.429688 74.636719 56.101562 74.429688 56.753906 74.160156 C 57.40625 73.886719 58.027344 73.554688 58.613281 73.160156 C 59.199219 72.765625 59.742188 72.320312 60.242188 71.820312 C 60.742188 71.320312 61.1875 70.773438 61.578125 70.183594 C 61.972656 69.597656 62.304688 68.976562 62.574219 68.320312 C 62.84375 67.667969 63.050781 66.992188 63.1875 66.300781 C 63.328125 65.605469 63.398438 64.902344 63.398438 64.195312 L 63.398438 19.574219 L 68.273438 19.574219 C 68.703125 19.574219 69.117188 19.488281 69.515625 19.324219 C 69.914062 19.160156 70.265625 18.921875 70.570312 18.617188 C 70.875 18.3125 71.109375 17.960938 71.273438 17.5625 C 71.441406 17.160156 71.523438 16.746094 71.523438 16.3125 C 71.523438 15.882812 71.441406 15.464844 71.273438 15.066406 C 71.109375 14.667969 70.875 14.3125 70.570312 14.007812 C 70.265625 13.703125 69.914062 13.46875 69.515625 13.300781 C 69.117188 13.136719 68.703125 13.054688 68.273438 13.054688 Z M 27.648438 10.757812 C 27.648438 10.480469 27.675781 10.203125 27.730469 9.933594 C 27.78125 9.660156 27.863281 9.398438 27.96875 9.140625 C 28.074219 8.882812 28.203125 8.640625 28.355469 8.410156 C 28.511719 8.179688 28.683594 7.96875 28.878906 7.769531 C 29.074219 7.574219 29.289062 7.398438 29.519531 7.246094 C 29.746094 7.09375 29.992188 6.960938 30.246094 6.855469 C 30.5 6.75 30.765625 6.671875 31.035156 6.617188 C 31.304688 6.5625 31.582031 6.535156 31.855469 6.535156 L 42.9375 6.535156 C 43.214844 6.535156 43.488281 6.5625 43.761719 6.617188 C 44.03125 6.671875 44.292969 6.75 44.550781 6.855469 C 44.804688 6.960938 45.046875 7.09375 45.277344 7.246094 C 45.507812 7.398438 45.71875 7.574219 45.914062 7.769531 C 46.109375 7.96875 46.285156 8.179688 46.4375 8.410156 C 46.59375 8.640625 46.722656 8.882812 46.828125 9.140625 C 46.933594 9.398438 47.011719 9.660156 47.066406 9.933594 C 47.121094 10.203125 47.148438 10.480469 47.148438 10.757812 L 47.148438 13.054688 L 27.648438 13.054688 Z M 56.898438 64.195312 C 56.898438 64.476562 56.867188 64.753906 56.8125 65.027344 C 56.757812 65.300781 56.675781 65.566406 56.570312 65.828125 C 56.460938 66.085938 56.332031 66.332031 56.175781 66.5625 C 56.019531 66.796875 55.84375 67.011719 55.644531 67.210938 C 55.449219 67.40625 55.234375 67.585938 55 67.742188 C 54.769531 67.894531 54.523438 68.027344 54.265625 68.136719 C 54.007812 68.242188 53.742188 68.324219 53.46875 68.378906 C 53.195312 68.4375 52.917969 68.464844 52.640625 68.464844 L 22.171875 68.464844 C 21.890625 68.464844 21.613281 68.4375 21.339844 68.382812 C 21.066406 68.328125 20.796875 68.246094 20.539062 68.140625 C 20.28125 68.035156 20.035156 67.902344 19.800781 67.746094 C 19.570312 67.589844 19.355469 67.414062 19.15625 67.214844 C 18.957031 67.015625 18.78125 66.800781 18.625 66.570312 C 18.46875 66.335938 18.335938 66.089844 18.226562 65.832031 C 18.121094 65.570312 18.039062 65.304688 17.984375 65.027344 C 17.925781 64.753906 17.898438 64.476562 17.898438 64.195312 L 17.898438 19.574219 L 56.898438 19.574219 Z M 56.898438 64.195312 " fill-opacity="1" fill-rule="nonzero"/></g><path fill="#df1616" d="M 29.273438 26.890625 C 28.839844 26.890625 28.425781 26.972656 28.027344 27.136719 C 27.628906 27.304688 27.28125 27.539062 26.976562 27.84375 C 26.667969 28.152344 26.433594 28.503906 26.269531 28.902344 C 26.105469 29.300781 26.023438 29.71875 26.023438 30.148438 L 26.023438 59.484375 C 26.023438 59.917969 26.105469 60.332031 26.269531 60.734375 C 26.433594 61.132812 26.667969 61.484375 26.976562 61.789062 C 27.28125 62.09375 27.628906 62.332031 28.027344 62.496094 C 28.425781 62.660156 28.839844 62.746094 29.273438 62.746094 C 29.703125 62.746094 30.117188 62.660156 30.515625 62.496094 C 30.914062 62.332031 31.265625 62.09375 31.570312 61.789062 C 31.875 61.484375 32.109375 61.132812 32.273438 60.734375 C 32.441406 60.332031 32.523438 59.917969 32.523438 59.484375 L 32.523438 30.148438 C 32.523438 29.71875 32.441406 29.300781 32.273438 28.902344 C 32.109375 28.503906 31.875 28.152344 31.570312 27.84375 C 31.265625 27.539062 30.914062 27.304688 30.515625 27.136719 C 30.117188 26.972656 29.703125 26.890625 29.273438 26.890625 Z M 29.273438 26.890625 " fill-opacity="1" fill-rule="nonzero"/><path fill="#df1616" d="M 45.523438 26.890625 C 45.089844 26.890625 44.675781 26.972656 44.277344 27.136719 C 43.878906 27.304688 43.53125 27.539062 43.226562 27.84375 C 42.917969 28.152344 42.683594 28.503906 42.519531 28.902344 C 42.355469 29.300781 42.273438 29.71875 42.273438 30.148438 L 42.273438 59.484375 C 42.273438 59.917969 42.355469 60.332031 42.519531 60.734375 C 42.683594 61.132812 42.917969 61.484375 43.226562 61.789062 C 43.53125 62.09375 43.878906 62.332031 44.277344 62.496094 C 44.675781 62.660156 45.089844 62.746094 45.523438 62.746094 C 45.953125 62.746094 46.367188 62.660156 46.765625 62.496094 C 47.164062 62.332031 47.515625 62.09375 47.820312 61.789062 C 48.125 61.484375 48.359375 61.132812 48.523438 60.734375 C 48.691406 60.332031 48.773438 59.917969 48.773438 59.484375 L 48.773438 30.148438 C 48.773438 29.71875 48.691406 29.300781 48.523438 28.902344 C 48.359375 28.503906 48.125 28.152344 47.820312 27.84375 C 47.515625 27.539062 47.164062 27.304688 46.765625 27.136719 C 46.367188 26.972656 45.953125 26.890625 45.523438 26.890625 Z M 45.523438 26.890625 " fill-opacity="1" fill-rule="nonzero"/></svg>