<svg xmlns="http://www.w3.org/2000/svg" xmlns:xlink="http://www.w3.org/1999/xlink" width="100" zoomAndPan="magnify" viewBox="0 0 75 74.999997" height="100" preserveAspectRatio="xMidYMid meet" version="1.0"><path fill="#a87ff3" d="M 62.976562 69.273438 L 5.726562 69.273438 L 5.726562 12.023438 L 40.078125 12.023438 L 40.078125 6.296875 L 5.726562 6.296875 C 2.566406 6.296875 0 8.863281 0 12.023438 L 0 69.273438 C 0 72.433594 2.566406 75 5.726562 75 L 62.976562 75 C 66.136719 75 68.703125 72.433594 68.703125 69.273438 L 68.703125 34.921875 L 62.976562 34.921875 Z M 62.976562 69.273438 " fill-opacity="1" fill-rule="nonzero"/><path fill="#a87ff3" d="M 22.902344 52.191406 L 34.953125 52.191406 L 64.164062 22.980469 L 52.019531 10.835938 L 22.902344 39.957031 Z M 22.902344 52.191406 " fill-opacity="1" fill-rule="nonzero"/><path fill="#a87ff3" d="M 72.75 6.296875 L 68.703125 2.25 C 66.464844 0.0117188 62.839844 0.0117188 60.605469 2.25 L 56.066406 6.789062 L 68.210938 18.933594 L 72.75 14.394531 C 74.988281 12.15625 74.988281 8.53125 72.75 6.296875 Z M 72.75 6.296875 " fill-opacity="1" fill-rule="nonzero"/></svg>