<svg xmlns="http://www.w3.org/2000/svg" xmlns:xlink="http://www.w3.org/1999/xlink" width="100" zoomAndPan="magnify" viewBox="0 0 75 74.999997" height="100" preserveAspectRatio="xMidYMid meet" version="1.0"><path fill="#0277b5" d="M 68.734375 0 L 6.304688 0 C 2.851562 0 0.0742188 2.8125 0.0742188 6.226562 L 0.0742188 68.773438 C 0.0742188 72.222656 2.890625 75 6.304688 75 L 68.695312 75 C 72.148438 75 74.925781 72.1875 74.925781 68.773438 L 74.925781 6.226562 C 74.960938 2.8125 72.1875 0 68.734375 0 Z M 22.25 61.867188 L 11.179688 61.867188 L 11.179688 28.625 L 22.25 28.625 Z M 16.695312 24.613281 C 13.207031 24.613281 10.394531 21.796875 10.394531 18.308594 C 10.394531 14.820312 13.207031 12.007812 16.695312 12.007812 C 20.183594 12.007812 23 14.820312 23 18.308594 C 23 21.796875 20.183594 24.613281 16.695312 24.613281 Z M 63.894531 61.867188 L 52.789062 61.867188 L 52.527344 42.132812 C 52.527344 42.132812 52.789062 36.882812 47.046875 36.917969 C 41.308594 36.957031 40.519531 42.132812 40.519531 42.132812 L 40.519531 61.867188 L 29.339844 61.867188 L 29.339844 28.625 L 40.070312 28.625 L 40.070312 33.203125 C 40.070312 33.203125 40.519531 31.703125 42.996094 29.941406 C 45.472656 28.175781 49.5625 27.800781 51.324219 27.875 C 53.089844 27.953125 55.492188 27.652344 59.503906 30.425781 C 63.820312 33.390625 63.933594 41.15625 63.933594 41.15625 Z M 63.894531 61.867188 " fill-opacity="1" fill-rule="nonzero"/></svg>