<svg xmlns="http://www.w3.org/2000/svg" xmlns:xlink="http://www.w3.org/1999/xlink" width="100" zoomAndPan="magnify" viewBox="0 0 75 74.999997" height="100" preserveAspectRatio="xMidYMid meet" version="1.0"><path fill="#59aae7" d="M 75 37.5 C 75 38.726562 74.941406 39.953125 74.820312 41.175781 C 74.699219 42.398438 74.519531 43.609375 74.28125 44.816406 C 74.039062 46.019531 73.742188 47.210938 73.386719 48.386719 C 73.027344 49.5625 72.617188 50.714844 72.144531 51.851562 C 71.675781 52.984375 71.152344 54.09375 70.570312 55.175781 C 69.992188 56.261719 69.363281 57.3125 68.679688 58.332031 C 67.996094 59.355469 67.265625 60.339844 66.488281 61.289062 C 65.707031 62.238281 64.886719 63.148438 64.015625 64.015625 C 63.148438 64.886719 62.238281 65.707031 61.289062 66.488281 C 60.339844 67.265625 59.355469 67.996094 58.332031 68.679688 C 57.3125 69.363281 56.261719 69.992188 55.175781 70.570312 C 54.09375 71.152344 52.984375 71.675781 51.851562 72.144531 C 50.714844 72.617188 49.5625 73.027344 48.386719 73.386719 C 47.210938 73.742188 46.019531 74.039062 44.816406 74.28125 C 43.609375 74.519531 42.398438 74.699219 41.175781 74.820312 C 39.953125 74.941406 38.726562 75 37.5 75 C 36.273438 75 35.046875 74.941406 33.824219 74.820312 C 32.601562 74.699219 31.390625 74.519531 30.183594 74.28125 C 28.980469 74.039062 27.789062 73.742188 26.613281 73.386719 C 25.4375 73.027344 24.285156 72.617188 23.148438 72.144531 C 22.015625 71.675781 20.90625 71.152344 19.824219 70.570312 C 18.738281 69.992188 17.6875 69.363281 16.667969 68.679688 C 15.644531 67.996094 14.660156 67.265625 13.710938 66.488281 C 12.761719 65.707031 11.851562 64.886719 10.984375 64.015625 C 10.113281 63.148438 9.292969 62.238281 8.511719 61.289062 C 7.734375 60.339844 7.003906 59.355469 6.320312 58.332031 C 5.636719 57.3125 5.007812 56.261719 4.429688 55.175781 C 3.847656 54.09375 3.324219 52.984375 2.855469 51.851562 C 2.382812 50.714844 1.972656 49.5625 1.613281 48.386719 C 1.257812 47.210938 0.960938 46.019531 0.71875 44.816406 C 0.480469 43.609375 0.300781 42.398438 0.179688 41.175781 C 0.0585938 39.953125 0 38.726562 0 37.5 C 0 36.273438 0.0585938 35.046875 0.179688 33.824219 C 0.300781 32.601562 0.480469 31.390625 0.71875 30.183594 C 0.960938 28.980469 1.257812 27.789062 1.613281 26.613281 C 1.972656 25.4375 2.382812 24.285156 2.855469 23.148438 C 3.324219 22.015625 3.847656 20.90625 4.429688 19.824219 C 5.007812 18.738281 5.636719 17.6875 6.320312 16.667969 C 7.003906 15.644531 7.734375 14.660156 8.511719 13.710938 C 9.292969 12.761719 10.113281 11.851562 10.984375 10.984375 C 11.851562 10.113281 12.761719 9.292969 13.710938 8.511719 C 14.660156 7.734375 15.644531 7.003906 16.667969 6.320312 C 17.6875 5.636719 18.738281 5.007812 19.824219 4.429688 C 20.90625 3.847656 22.015625 3.324219 23.148438 2.855469 C 24.285156 2.382812 25.4375 1.972656 26.613281 1.613281 C 27.789062 1.257812 28.980469 0.960938 30.183594 0.71875 C 31.390625 0.480469 32.601562 0.300781 33.824219 0.179688 C 35.046875 0.0585938 36.273438 0 37.5 0 C 38.726562 0 39.953125 0.0585938 41.175781 0.179688 C 42.398438 0.300781 43.609375 0.480469 44.816406 0.71875 C 46.019531 0.960938 47.210938 1.257812 48.386719 1.613281 C 49.5625 1.972656 50.714844 2.382812 51.851562 2.855469 C 52.984375 3.324219 54.09375 3.847656 55.175781 4.429688 C 56.261719 5.007812 57.3125 5.636719 58.332031 6.320312 C 59.355469 7.003906 60.339844 7.734375 61.289062 8.511719 C 62.238281 9.292969 63.148438 10.113281 64.015625 10.984375 C 64.886719 11.851562 65.707031 12.761719 66.488281 13.710938 C 67.265625 14.660156 67.996094 15.644531 68.679688 16.667969 C 69.363281 17.6875 69.992188 18.738281 70.570312 19.824219 C 71.152344 20.90625 71.675781 22.015625 72.144531 23.148438 C 72.617188 24.285156 73.027344 25.4375 73.386719 26.613281 C 73.742188 27.789062 74.039062 28.980469 74.28125 30.183594 C 74.519531 31.390625 74.699219 32.601562 74.820312 33.824219 C 74.941406 35.046875 75 36.273438 75 37.5 Z M 75 37.5 " fill-opacity="1" fill-rule="nonzero"/><path fill="#417ca8" d="M 27.136719 25.476562 L 27.136719 21.851562 C 27.136719 20.75 28.03125 19.855469 29.136719 19.855469 L 45.863281 19.855469 C 46.96875 19.855469 47.863281 20.75 47.863281 21.851562 L 47.863281 25.476562 L 57.832031 25.476562 C 58.9375 25.476562 59.832031 26.375 59.832031 27.476562 L 59.832031 53.148438 C 59.832031 54.25 58.9375 55.144531 57.832031 55.144531 L 17.167969 55.144531 C 16.0625 55.144531 15.167969 54.25 15.167969 53.148438 L 15.167969 27.476562 C 15.167969 26.375 16.0625 25.476562 17.167969 25.476562 Z M 55.832031 35.285156 L 55.832031 29.476562 L 19.167969 29.476562 L 19.167969 35.285156 Z M 53.078125 45.339844 L 53.078125 46.308594 C 53.078125 47.410156 52.183594 48.308594 51.078125 48.308594 L 45.117188 48.308594 C 44.015625 48.308594 43.117188 47.410156 43.117188 46.308594 L 43.117188 45.339844 L 31.882812 45.339844 L 31.882812 46.308594 C 31.882812 47.410156 30.984375 48.308594 29.882812 48.308594 L 23.921875 48.308594 C 22.816406 48.308594 21.921875 47.410156 21.921875 46.308594 L 21.921875 45.339844 L 19.167969 45.339844 L 19.167969 51.148438 L 55.832031 51.148438 L 55.832031 45.339844 Z M 49.078125 39.285156 L 47.117188 39.285156 L 47.117188 44.308594 L 49.078125 44.308594 Z M 27.882812 39.285156 L 25.921875 39.285156 L 25.921875 44.308594 L 27.882812 44.308594 Z M 21.921875 39.285156 L 19.167969 39.285156 L 19.167969 41.339844 L 21.921875 41.339844 Z M 43.117188 39.285156 L 31.882812 39.285156 L 31.882812 41.339844 L 43.117188 41.339844 Z M 55.832031 39.285156 L 53.078125 39.285156 L 53.078125 41.339844 L 55.832031 41.339844 Z M 31.136719 25.476562 L 43.863281 25.476562 L 43.863281 23.851562 L 31.136719 23.851562 Z M 31.136719 25.476562 " fill-opacity="1" fill-rule="evenodd"/><path fill="#ffffff" d="M 17.167969 26.476562 L 28.136719 26.476562 L 28.136719 21.851562 C 28.136719 21.300781 28.582031 20.851562 29.136719 20.851562 L 45.863281 20.851562 C 46.417969 20.851562 46.863281 21.300781 46.863281 21.851562 L 46.863281 26.476562 L 57.832031 26.476562 C 58.386719 26.476562 58.832031 26.925781 58.832031 27.476562 L 58.832031 53.148438 C 58.832031 53.699219 58.386719 54.148438 57.832031 54.148438 L 17.167969 54.148438 C 16.613281 54.148438 16.167969 53.699219 16.167969 53.148438 L 16.167969 27.476562 C 16.167969 26.925781 16.613281 26.476562 17.167969 26.476562 Z M 45.117188 36.285156 L 56.832031 36.285156 L 56.832031 28.476562 L 18.167969 28.476562 L 18.167969 36.285156 Z M 52.078125 44.339844 L 52.078125 46.308594 C 52.078125 46.859375 51.632812 47.308594 51.078125 47.308594 L 45.117188 47.308594 C 44.566406 47.308594 44.117188 46.859375 44.117188 46.308594 L 44.117188 44.339844 L 30.882812 44.339844 L 30.882812 46.308594 C 30.882812 46.859375 30.433594 47.308594 29.882812 47.308594 L 23.921875 47.308594 C 23.367188 47.308594 22.921875 46.859375 22.921875 46.308594 L 22.921875 44.339844 L 18.167969 44.339844 L 18.167969 52.148438 L 56.832031 52.148438 L 56.832031 44.339844 Z M 50.078125 38.285156 L 46.117188 38.285156 L 46.117188 45.308594 L 50.078125 45.308594 Z M 28.882812 38.285156 L 24.921875 38.285156 L 24.921875 45.308594 L 28.882812 45.308594 Z M 22.921875 38.285156 L 18.167969 38.285156 L 18.167969 42.339844 L 22.921875 42.339844 Z M 44.117188 38.285156 L 30.882812 38.285156 L 30.882812 42.339844 L 44.117188 42.339844 Z M 56.832031 38.285156 L 52.078125 38.285156 L 52.078125 42.339844 L 56.832031 42.339844 Z M 30.136719 26.476562 L 44.863281 26.476562 L 44.863281 22.851562 L 30.136719 22.851562 Z M 30.136719 26.476562 " fill-opacity="1" fill-rule="nonzero"/></svg>