<svg xmlns="http://www.w3.org/2000/svg" xmlns:xlink="http://www.w3.org/1999/xlink" width="100" zoomAndPan="magnify" viewBox="0 0 75 74.999997" height="100" preserveAspectRatio="xMidYMid meet" version="1.0"><path fill="#1b9df0" d="M 75 37.5 C 75 38.726562 74.941406 39.953125 74.820312 41.175781 C 74.699219 42.398438 74.519531 43.609375 74.28125 44.816406 C 74.039062 46.019531 73.742188 47.210938 73.386719 48.386719 C 73.027344 49.5625 72.617188 50.714844 72.144531 51.851562 C 71.675781 52.984375 71.152344 54.09375 70.570312 55.175781 C 69.992188 56.261719 69.363281 57.3125 68.679688 58.332031 C 67.996094 59.355469 67.265625 60.339844 66.488281 61.289062 C 65.707031 62.238281 64.886719 63.148438 64.015625 64.015625 C 63.148438 64.886719 62.238281 65.707031 61.289062 66.488281 C 60.339844 67.265625 59.355469 67.996094 58.332031 68.679688 C 57.3125 69.363281 56.261719 69.992188 55.175781 70.570312 C 54.09375 71.152344 52.984375 71.675781 51.851562 72.144531 C 50.714844 72.617188 49.5625 73.027344 48.386719 73.386719 C 47.210938 73.742188 46.019531 74.039062 44.816406 74.28125 C 43.609375 74.519531 42.398438 74.699219 41.175781 74.820312 C 39.953125 74.941406 38.726562 75 37.5 75 C 36.273438 75 35.046875 74.941406 33.824219 74.820312 C 32.601562 74.699219 31.390625 74.519531 30.183594 74.28125 C 28.980469 74.039062 27.789062 73.742188 26.613281 73.386719 C 25.4375 73.027344 24.285156 72.617188 23.148438 72.144531 C 22.015625 71.675781 20.90625 71.152344 19.824219 70.570312 C 18.738281 69.992188 17.6875 69.363281 16.667969 68.679688 C 15.644531 67.996094 14.660156 67.265625 13.710938 66.488281 C 12.761719 65.707031 11.851562 64.886719 10.984375 64.015625 C 10.113281 63.148438 9.292969 62.238281 8.511719 61.289062 C 7.734375 60.339844 7.003906 59.355469 6.320312 58.332031 C 5.636719 57.3125 5.007812 56.261719 4.429688 55.175781 C 3.847656 54.09375 3.324219 52.984375 2.855469 51.851562 C 2.382812 50.714844 1.972656 49.5625 1.613281 48.386719 C 1.257812 47.210938 0.960938 46.019531 0.71875 44.816406 C 0.480469 43.609375 0.300781 42.398438 0.179688 41.175781 C 0.0585938 39.953125 0 38.726562 0 37.5 C 0 36.273438 0.0585938 35.046875 0.179688 33.824219 C 0.300781 32.601562 0.480469 31.390625 0.71875 30.183594 C 0.960938 28.980469 1.257812 27.789062 1.613281 26.613281 C 1.972656 25.4375 2.382812 24.285156 2.855469 23.148438 C 3.324219 22.015625 3.847656 20.90625 4.429688 19.824219 C 5.007812 18.738281 5.636719 17.6875 6.320312 16.667969 C 7.003906 15.644531 7.734375 14.660156 8.511719 13.710938 C 9.292969 12.761719 10.113281 11.851562 10.984375 10.984375 C 11.851562 10.113281 12.761719 9.292969 13.710938 8.511719 C 14.660156 7.734375 15.644531 7.003906 16.667969 6.320312 C 17.6875 5.636719 18.738281 5.007812 19.824219 4.429688 C 20.90625 3.847656 22.015625 3.324219 23.148438 2.855469 C 24.285156 2.382812 25.4375 1.972656 26.613281 1.613281 C 27.789062 1.257812 28.980469 0.960938 30.183594 0.71875 C 31.390625 0.480469 32.601562 0.300781 33.824219 0.179688 C 35.046875 0.0585938 36.273438 0 37.5 0 C 38.726562 0 39.953125 0.0585938 41.175781 0.179688 C 42.398438 0.300781 43.609375 0.480469 44.816406 0.71875 C 46.019531 0.960938 47.210938 1.257812 48.386719 1.613281 C 49.5625 1.972656 50.714844 2.382812 51.851562 2.855469 C 52.984375 3.324219 54.09375 3.847656 55.175781 4.429688 C 56.261719 5.007812 57.3125 5.636719 58.332031 6.320312 C 59.355469 7.003906 60.339844 7.734375 61.289062 8.511719 C 62.238281 9.292969 63.148438 10.113281 64.015625 10.984375 C 64.886719 11.851562 65.707031 12.761719 66.488281 13.710938 C 67.265625 14.660156 67.996094 15.644531 68.679688 16.667969 C 69.363281 17.6875 69.992188 18.738281 70.570312 19.824219 C 71.152344 20.90625 71.675781 22.015625 72.144531 23.148438 C 72.617188 24.285156 73.027344 25.4375 73.386719 26.613281 C 73.742188 27.789062 74.039062 28.980469 74.28125 30.183594 C 74.519531 31.390625 74.699219 32.601562 74.820312 33.824219 C 74.941406 35.046875 75 36.273438 75 37.5 Z M 75 37.5 " fill-opacity="1" fill-rule="nonzero"/><path fill="#ffffff" d="M 30.636719 57.28125 C 47.269531 57.28125 56.363281 43.5 56.363281 31.554688 C 56.363281 31.164062 56.363281 30.769531 56.34375 30.394531 C 58.105469 29.117188 59.644531 27.523438 60.863281 25.707031 C 59.25 26.417969 57.507812 26.90625 55.667969 27.132812 C 57.542969 26.007812 58.96875 24.242188 59.644531 22.125 C 57.898438 23.15625 55.96875 23.90625 53.90625 24.320312 C 52.257812 22.554688 49.914062 21.46875 47.304688 21.46875 C 42.320312 21.46875 38.269531 25.519531 38.269531 30.507812 C 38.269531 31.21875 38.34375 31.914062 38.511719 32.570312 C 30.992188 32.195312 24.335938 28.59375 19.875 23.117188 C 19.105469 24.449219 18.65625 26.007812 18.65625 27.65625 C 18.65625 30.789062 20.25 33.5625 22.6875 35.175781 C 21.207031 35.136719 19.820312 34.726562 18.601562 34.050781 C 18.601562 34.085938 18.601562 34.125 18.601562 34.164062 C 18.601562 38.550781 21.710938 42.1875 25.855469 43.03125 C 25.105469 43.238281 24.300781 43.351562 23.476562 43.351562 C 22.894531 43.351562 22.332031 43.292969 21.769531 43.179688 C 22.914062 46.78125 26.25 49.386719 30.207031 49.460938 C 27.113281 51.882812 23.210938 53.324219 18.976562 53.324219 C 18.242188 53.324219 17.53125 53.289062 16.820312 53.195312 C 20.773438 55.78125 25.539062 57.28125 30.636719 57.28125 " fill-opacity="1" fill-rule="nonzero"/></svg>